# xmcd
#
# Track frame offsets:
#	150
#	16733
#	31145
#	45467
#	58160
#	73910
#	89255
#	106792
#	119567
#	133410
#	148463
#	157985
#	171095
#	187685
#
# Disc length: 2737
#
# Revision: 1
# Processed by: cddbd v1.5.1PL0 Copyright (c) Steve Scherf et al.
# Submitted via: ExactAudioCopy v0.90a11
# Normalized: r0:DSETVAR1,TDELIM( - )
#
DISCID=c00aaf0e
DTITLE=Various Artist - Rodeo
DYEAR=1900
DGENRE=
TTITLE0=Al Anderson - Get Gone
TTITLE1=Bellamy Brothers - Get A Little Crazy
TTITLE2=Colin Beach - Chattahoochie
TTITLE3=Craig Nesbitt - My Next Broken Heart
TTITLE4=Dana Barron - Piece of My Heart
TTITLE5=Dany Lockwood - Fast As you
TTITLE6=David Lee - I Don´t Even Know Your Name
TTITLE7=Don Cox - I Never Met A Woman That I Didn´t Like
TTITLE8=Doug Wayne - Stranger Than Fiction
TTITLE9=Joe Nichols - Independent Girl
TTITLE10=Larry Lowman - The Big One
TTITLE11=Paulette Carlson - I´ve Got Your Number
TTITLE12=Sweethearts - When The Morning Comes
TTITLE13=Western Flyer - Western Flyer
EXTD=
EXTT0=
EXTT1=
EXTT2=
EXTT3=
EXTT4=
EXTT5=
EXTT6=
EXTT7=
EXTT8=
EXTT9=
EXTT10=
EXTT11=
EXTT12=
EXTT13=
PLAYORDER=
